# Blender v2.80 (sub 75) OBJ File: '63building.blend'
# www.blender.org
mtllib 63building.mtl
o buiilding_Cube
v 0.675827 6.400000 -0.250435
v 0.711685 0.000000 -0.449752
v 0.675827 6.400000 0.163804
v 0.711685 0.000000 0.363121
v -0.675827 6.400000 -0.250435
v -0.711685 0.000000 -0.449752
v -0.675827 6.400000 0.163804
v -0.711685 0.000000 0.363121
v 0.711685 0.457143 -0.449752
v -0.711685 0.457143 0.363121
v 0.711685 0.457143 0.363121
v -0.711685 0.457143 -0.449752
v -0.711685 4.074877 0.214188
v 0.711685 4.074877 -0.300820
v 0.711685 4.074877 0.214188
v -0.711685 4.074877 -0.300820
v -0.711685 0.000000 -0.141611
v -0.711685 0.000000 0.047998
v 0.675827 6.400000 -0.141611
v 0.675827 6.400000 0.047998
v -0.675827 6.400000 0.047998
v -0.675827 6.400000 -0.141611
v 0.711685 0.000000 0.047998
v 0.711685 0.000000 -0.141611
v 0.711685 0.457143 -0.141611
v 0.711685 0.457143 0.047998
v -0.711685 0.457143 0.047998
v -0.711685 0.457143 -0.141611
v 0.711685 4.074877 -0.141611
v 0.711685 4.074877 0.047998
v -0.711685 4.074877 0.047998
v -0.711685 4.074877 -0.141611
v 0.711685 6.400000 -0.141611
v 0.711685 6.400000 0.047998
v 0.711685 0.000000 0.047998
v 0.711685 0.000000 -0.141611
v 0.711685 0.457143 -0.141611
v 0.711685 0.457143 0.047998
v 0.711685 4.074877 -0.141611
v 0.711685 4.074877 0.047998
v -0.788554 0.000000 -0.111869
v -0.767387 0.000000 -0.141611
v -0.767387 0.000000 0.047998
v -0.788554 0.000000 0.018256
v -0.788554 6.400000 0.018255
v -0.767387 6.400000 0.047998
v -0.767387 6.400000 -0.141611
v -0.788554 6.400000 -0.111868
v -0.788554 0.457143 0.018256
v -0.767387 0.457143 0.047998
v -0.767387 0.457143 -0.141611
v -0.788554 0.457143 -0.111869
v -0.767387 4.074877 0.047998
v -0.788554 4.074877 0.018255
v -0.788554 4.074877 -0.111868
v -0.767387 4.074877 -0.141611
v 0.788554 6.400000 -0.111868
v 0.767387 6.400000 -0.141611
v 0.767387 6.400000 0.047998
v 0.788554 6.400000 0.018256
v 0.788554 0.000000 0.018256
v 0.767387 0.000000 0.047998
v 0.767387 0.000000 -0.141611
v 0.788554 0.000000 -0.111869
v 0.788554 0.457143 -0.111869
v 0.767387 0.457143 -0.141611
v 0.767387 0.457143 0.047998
v 0.788554 0.457143 0.018256
v 0.767387 4.074877 -0.141611
v 0.788554 4.074877 -0.111868
v 0.788554 4.074877 0.018255
v 0.767387 4.074877 0.047998
v 0.711685 6.400000 0.214188
v -0.711685 6.400000 0.214188
v 0.711685 6.400000 0.047998
v -0.711685 6.400000 -0.141611
v -0.711685 6.400000 -0.300820
v 0.711685 6.400000 -0.300820
v 0.711685 6.400000 -0.141611
v -0.711685 6.400000 0.047998
v -0.661517 6.340872 -0.121502
v -0.313918 6.340872 -0.121502
v -0.661517 6.340872 0.027890
v -0.313918 6.340872 0.027890
v 0.675827 6.340872 0.163804
v -0.675827 6.340872 0.163804
v -0.675827 6.340872 -0.250435
v 0.675827 6.340872 -0.250435
v -0.675827 6.340872 -0.141611
v 0.675827 6.340872 -0.141611
v -0.675827 6.340872 0.047998
v 0.675827 6.340872 0.047998
v -0.661517 6.498969 -0.121502
v -0.313918 6.498969 -0.121502
v -0.661517 6.498969 0.027890
v -0.313918 6.498969 0.027890
vt 0.607477 0.980431
vt 0.679437 0.969028
vt 0.679437 0.980431
vt 0.306693 0.726976
vt 0.006832 0.465682
vt 0.306649 0.465677
vt 0.434457 0.726020
vt 0.331344 0.011505
vt 0.434457 0.011505
vt 0.017288 0.771592
vt 0.180098 0.752806
vt 0.180098 0.771554
vt 0.434457 0.726020
vt 0.331344 0.011505
vt 0.434457 0.011505
vt 0.306693 0.726976
vt 0.006832 0.465682
vt 0.306649 0.465677
vt 0.306641 0.055632
vt 0.006788 0.004246
vt 0.306637 0.004267
vt 0.072549 0.994743
vt 0.183987 0.910168
vt 0.072549 0.910168
vt 0.072549 0.910168
vt 0.183987 0.994743
vt 0.183987 0.910168
vt 0.306641 0.055632
vt 0.006788 0.004246
vt 0.306637 0.004267
vt 0.006582 0.055552
vt 0.453450 0.008727
vt 0.518483 0.704353
vt 0.578319 0.008727
vt 0.453450 0.008727
vt 0.518483 0.704353
vt 0.578319 0.008727
vt 0.006582 0.055552
vt 0.518483 0.704353
vt 0.453450 0.008727
vt 0.578319 0.008727
vt 0.940004 0.709354
vt 0.913324 0.092864
vt 0.940093 0.092864
vt 0.518483 0.704353
vt 0.453450 0.008727
vt 0.578319 0.008727
vt -0.179728 1.042363
vt -0.159340 1.039882
vt -0.179676 1.042717
vt 0.183987 0.910168
vt 0.072549 0.994743
vt 0.072549 0.910168
vt 0.813253 0.094077
vt 0.840007 0.709353
vt 0.813251 0.709353
vt 0.183987 0.994743
vt 0.072549 0.910168
vt 0.183987 0.910168
vt -0.037423 1.023008
vt 0.047916 1.025519
vt -0.037428 1.024498
vt 0.434457 0.726020
vt 0.331344 0.011505
vt 0.434457 0.011505
vt -0.240573 1.050789
vt -0.220240 1.048334
vt -0.240521 1.051143
vt 0.017288 0.801169
vt 0.180098 0.782835
vt 0.180098 0.801169
vt 0.017288 0.782835
vt 0.434457 0.726020
vt 0.331344 0.011505
vt 0.434457 0.011505
vt 0.913333 0.015112
vt 0.940104 0.015113
vt 0.607477 0.980431
vt 0.679437 0.969028
vt 0.679437 0.980431
vt 0.563576 0.993622
vt 0.994397 0.983464
vt 0.994400 0.993625
vt 0.620538 0.009746
vt 0.650713 0.456182
vt 0.620518 0.456182
vt 0.853921 0.723412
vt 0.897608 0.723412
vt 0.907593 0.735765
vt 0.717142 0.456181
vt 0.666975 0.009747
vt 0.717192 0.009747
vt -0.200010 1.045172
vt -0.199958 1.045525
vt -0.159399 1.039480
vt -0.034845 1.024076
vt 0.133264 1.025051
vt 0.218603 1.027562
vt 0.133259 1.026541
vt 0.047920 1.024030
vt -0.220292 1.047981
vt 0.813280 0.092862
vt 0.840007 0.709353
vt 0.813251 0.709353
vt 0.813283 0.015110
vt 0.840048 0.092862
vt 0.763565 0.456181
vt 0.733424 0.009747
vt 0.763629 0.009747
vt 0.940063 0.709349
vt 0.913249 0.094077
vt 0.940005 0.094077
vt 0.813272 0.016345
vt 0.840009 0.094077
vt 0.763595 0.456154
vt 0.733425 0.009747
vt 0.763695 0.009741
vt 0.898947 0.015112
vt 0.854434 0.092863
vt 0.854440 0.015111
vt 0.898870 0.709354
vt 0.854387 0.094077
vt 0.898870 0.094077
vt 0.898938 0.092863
vt 0.854386 0.709353
vt 0.913298 0.016345
vt 0.940062 0.016345
vt 0.897608 0.977232
vt 0.853920 0.977232
vt 0.843935 0.964684
vt 0.717158 0.456154
vt 0.666976 0.009746
vt 0.717193 0.009747
vt 0.620538 0.009746
vt 0.650708 0.456154
vt 0.620503 0.456154
vt 0.854419 0.016345
vt 0.898915 0.016345
vt 0.008495 0.781066
vt 0.008495 0.773324
vt 0.017288 0.771554
vt 0.898869 0.709354
vt 0.913248 0.709354
vt 0.733369 0.456181
vt 0.650743 0.009746
vt 0.666940 0.456182
vt 0.913249 0.709354
vt 0.854387 0.709353
vt 0.840036 0.016345
vt 0.733390 0.456154
vt 0.650743 0.009746
vt 0.666941 0.456154
vt 0.188890 0.773324
vt 0.188890 0.781066
vt 0.946469 0.958739
vt 0.963386 0.735765
vt 0.963385 0.964684
vt 0.907593 0.964684
vt 0.907593 0.958739
vt 0.807394 0.741528
vt 0.843935 0.735765
vt 0.843935 0.741528
vt 0.807394 0.958739
vt 0.790477 0.735765
vt 0.843935 0.964684
vt 0.790477 0.964684
vt 0.843935 0.958739
vt 0.946469 0.741528
vt 0.907593 0.741528
vt 0.629964 0.470571
vt 0.576466 0.809388
vt 0.576466 0.470571
vt 0.769250 0.809388
vt 0.718941 0.470571
vt 0.769250 0.470571
vt 0.555438 0.736001
vt 0.198635 0.824053
vt 0.198635 0.736002
vt 0.563576 0.993622
vt 0.994397 0.983464
vt 0.994400 0.993625
vt 0.726068 0.969028
vt 0.726068 0.980431
vt 0.565978 0.980431
vt 0.607477 0.969028
vt 0.565978 0.980431
vt 0.607477 0.969028
vt 0.726068 0.969028
vt 0.726068 0.980431
vt 0.709470 0.718641
vt 0.718941 0.809388
vt 0.709470 0.805690
vt 0.639078 0.718641
vt 0.629964 0.809388
vt 0.639078 0.805690
vt 0.198635 0.907239
vt 0.555438 0.824052
vt 0.555438 0.907239
vt 0.742363 0.907239
vt 0.742363 0.824052
vt 0.198635 0.995291
vt 0.555438 0.995291
vt 0.011710 0.824053
vt 0.011710 0.907239
vt 0.006822 0.726978
vt 0.331344 0.726020
vt 0.017288 0.752806
vt 0.331344 0.726020
vt 0.006822 0.726978
vt 0.183987 0.994743
vt 0.072549 0.994743
vt 0.453444 0.704353
vt 0.453444 0.704353
vt 0.453444 0.704353
vt 0.453444 0.704353
vt 0.183987 0.994743
vt 0.072549 0.994743
vt 0.331344 0.726020
vt 0.331344 0.726020
vt 0.563575 0.983465
vt 0.907593 0.726814
vt 0.843935 0.726814
vt -0.035139 1.021906
vt 0.218608 1.026073
vt 0.840053 0.015111
vt 0.843935 0.973831
vt 0.907593 0.964684
vt 0.907593 0.973831
vt 0.010917 0.771554
vt 0.017288 0.782835
vt 0.010917 0.782835
vt 0.186469 0.782835
vt 0.186469 0.771554
vt 0.563575 0.983465
vt 0.565978 0.969028
vt 0.565978 0.969028
vn -1.0000 0.0000 0.0000
vn 0.0000 0.0000 1.0000
vn 0.0000 -1.0000 0.0000
vn 1.0000 -0.0000 0.0000
vn 0.0000 0.0000 -1.0000
vn 0.0000 0.0411 -0.9992
vn 0.0000 0.0411 0.9992
vn 0.0000 1.0000 0.0000
vn -0.8147 0.0000 0.5798
vn -0.8147 0.0000 -0.5798
vn 0.8147 0.0000 -0.5798
vn 0.8147 0.0000 0.5798
usemtl Material
s off
f 19/1/1 92/2/1 20/3/1
f 73/4/2 13/5/2 15/6/2
f 76/7/1 16/8/1 32/9/1
f 23/10/3 8/11/3 18/12/3
f 75/13/4 15/14/4 30/15/4
f 77/16/5 14/17/5 16/18/5
f 12/19/5 2/20/5 6/21/5
f 26/22/4 4/23/4 23/24/4
f 17/25/1 12/26/1 6/27/1
f 11/28/2 8/29/2 4/30/2
f 16/18/6 9/31/6 12/19/6
f 26/32/4 15/33/4 11/34/4
f 28/35/1 16/36/1 12/37/1
f 15/6/7 10/38/7 11/28/7
f 13/39/1 27/40/1 10/41/1
f 31/42/2 50/43/2 27/44/2
f 14/45/4 25/46/4 9/47/4
f 24/48/2 37/49/2 36/50/2
f 8/51/1 27/52/1 18/53/1
f 38/54/2 72/55/2 40/56/2
f 9/57/4 24/58/4 2/59/4
f 29/60/2 33/61/2 39/62/2
f 78/63/4 29/64/4 14/65/4
f 30/66/2 38/67/2 40/68/2
f 2/69/3 17/70/3 6/71/3
f 24/72/3 18/12/3 17/70/3
f 74/73/1 31/74/1 13/75/1
f 27/44/2 43/76/2 18/77/2
f 21/78/4 89/79/4 22/80/4
f 3/81/5 86/82/5 7/83/5
f 32/84/5 47/85/5 76/86/5
f 48/87/8 45/88/8 80/89/8
f 45/90/1 55/91/1 54/92/1
f 23/93/2 36/50/2 35/94/2
f 25/95/2 39/96/2 37/49/2
f 75/97/2 40/98/2 34/99/2
f 79/100/2 34/99/2 33/61/2
f 26/101/2 35/94/2 38/67/2
f 28/102/5 56/103/5 32/104/5
f 17/105/5 51/106/5 28/102/5
f 80/107/2 53/108/2 31/109/2
f 39/110/5 66/111/5 37/112/5
f 35/113/2 67/114/2 38/54/2
f 33/115/5 69/116/5 39/117/5
f 44/118/1 52/119/1 41/120/1
f 70/121/4 68/122/4 65/123/4
f 49/124/1 55/125/1 52/119/1
f 37/112/5 63/126/5 36/127/5
f 60/128/8 57/129/8 33/130/8
f 57/131/4 71/132/4 70/133/4
f 40/134/2 59/135/2 34/136/2
f 65/123/4 61/137/4 64/138/4
f 64/139/3 61/140/3 35/141/3
f 54/142/9 50/43/9 53/143/9
f 51/106/10 55/125/10 56/103/10
f 49/124/9 43/76/9 50/43/9
f 51/106/10 41/120/10 52/119/10
f 54/92/9 46/144/9 45/90/9
f 56/145/10 48/146/10 47/85/10
f 70/121/11 66/111/11 69/147/11
f 67/114/12 71/148/12 72/55/12
f 64/138/11 66/111/11 65/123/11
f 62/149/12 68/122/12 67/114/12
f 70/133/11 58/150/11 57/131/11
f 72/151/12 60/152/12 59/135/12
f 44/153/3 41/154/3 17/70/3
f 3/155/8 74/156/8 73/157/8
f 3/155/8 75/158/8 20/159/8
f 5/160/8 76/161/8 22/162/8
f 1/163/8 77/164/8 5/160/8
f 1/163/8 79/165/8 78/166/8
f 20/159/8 79/165/8 19/167/8
f 7/168/8 80/89/8 74/156/8
f 22/162/8 80/89/8 21/169/8
f 92/170/8 86/171/8 85/172/8
f 87/173/8 90/174/8 88/175/8
f 84/176/2 95/177/2 83/178/2
f 5/179/2 88/180/2 1/181/2
f 20/3/1 85/182/1 3/183/1
f 7/184/4 91/185/4 21/78/4
f 1/186/1 90/187/1 19/1/1
f 22/80/4 87/188/4 5/189/4
f 82/190/8 89/191/8 81/192/8
f 84/193/8 91/194/8 92/170/8
f 84/193/8 90/174/8 82/190/8
f 81/192/8 91/194/8 83/195/8
f 93/196/8 96/197/8 94/198/8
f 82/199/4 96/197/4 84/200/4
f 81/201/5 94/198/5 82/202/5
f 83/203/1 93/196/1 81/204/1
f 19/1/1 90/187/1 92/2/1
f 73/4/2 74/205/2 13/5/2
f 76/7/1 77/206/1 16/8/1
f 23/10/3 4/207/3 8/11/3
f 75/13/4 73/208/4 15/14/4
f 77/16/5 78/209/5 14/17/5
f 12/19/5 9/31/5 2/20/5
f 26/22/4 11/210/4 4/23/4
f 17/25/1 28/211/1 12/26/1
f 11/28/2 10/38/2 8/29/2
f 16/18/6 14/17/6 9/31/6
f 26/32/4 30/212/4 15/33/4
f 28/35/1 32/213/1 16/36/1
f 15/6/7 13/5/7 10/38/7
f 13/39/1 31/214/1 27/40/1
f 31/42/2 53/143/2 50/43/2
f 14/45/4 29/215/4 25/46/4
f 24/48/2 25/95/2 37/49/2
f 8/51/1 10/216/1 27/52/1
f 38/54/2 67/114/2 72/55/2
f 9/57/4 25/217/4 24/58/4
f 29/60/2 79/100/2 33/61/2
f 78/63/4 79/218/4 29/64/4
f 30/66/2 26/101/2 38/67/2
f 2/69/3 24/72/3 17/70/3
f 24/72/3 23/10/3 18/12/3
f 74/73/1 80/219/1 31/74/1
f 27/44/2 50/43/2 43/76/2
f 21/78/4 91/185/4 89/79/4
f 3/81/5 85/220/5 86/82/5
f 32/84/5 56/145/5 47/85/5
f 46/221/8 80/89/8 45/88/8
f 80/89/8 76/161/8 48/87/8
f 76/161/8 47/222/8 48/87/8
f 45/90/1 48/146/1 55/91/1
f 23/93/2 24/48/2 36/50/2
f 25/95/2 29/223/2 39/96/2
f 75/97/2 30/224/2 40/98/2
f 79/100/2 75/97/2 34/99/2
f 26/101/2 23/93/2 35/94/2
f 28/102/5 51/106/5 56/103/5
f 17/105/5 42/225/5 51/106/5
f 80/107/2 46/144/2 53/108/2
f 39/110/5 69/147/5 66/111/5
f 35/113/2 62/149/2 67/114/2
f 33/115/5 58/150/5 69/116/5
f 44/118/1 49/124/1 52/119/1
f 70/121/4 71/148/4 68/122/4
f 49/124/1 54/142/1 55/125/1
f 37/112/5 66/111/5 63/126/5
f 58/226/8 33/130/8 57/129/8
f 33/130/8 34/227/8 60/128/8
f 34/227/8 59/228/8 60/128/8
f 57/131/4 60/152/4 71/132/4
f 40/134/2 72/151/2 59/135/2
f 65/123/4 68/122/4 61/137/4
f 62/229/3 35/141/3 61/140/3
f 35/141/3 36/230/3 64/139/3
f 36/230/3 63/231/3 64/139/3
f 54/142/9 49/124/9 50/43/9
f 51/106/10 52/119/10 55/125/10
f 49/124/9 44/118/9 43/76/9
f 51/106/10 42/225/10 41/120/10
f 54/92/9 53/108/9 46/144/9
f 56/145/10 55/91/10 48/146/10
f 70/121/11 65/123/11 66/111/11
f 67/114/12 68/122/12 71/148/12
f 64/138/11 63/126/11 66/111/11
f 62/149/12 61/137/12 68/122/12
f 70/133/11 69/116/11 58/150/11
f 72/151/12 71/132/12 60/152/12
f 42/232/3 17/70/3 41/154/3
f 17/70/3 18/12/3 44/153/3
f 18/12/3 43/233/3 44/153/3
f 3/155/8 7/168/8 74/156/8
f 3/155/8 73/157/8 75/158/8
f 5/160/8 77/164/8 76/161/8
f 1/163/8 78/166/8 77/164/8
f 1/163/8 19/167/8 79/165/8
f 20/159/8 75/158/8 79/165/8
f 7/168/8 21/169/8 80/89/8
f 22/162/8 76/161/8 80/89/8
f 92/170/8 91/194/8 86/171/8
f 87/173/8 89/191/8 90/174/8
f 84/176/2 96/197/2 95/177/2
f 5/179/2 87/234/2 88/180/2
f 20/3/1 92/2/1 85/182/1
f 7/184/4 86/235/4 91/185/4
f 1/186/1 88/236/1 90/187/1
f 22/80/4 89/79/4 87/188/4
f 82/190/8 90/174/8 89/191/8
f 84/193/8 83/195/8 91/194/8
f 84/193/8 92/170/8 90/174/8
f 81/192/8 89/191/8 91/194/8
f 93/196/8 95/177/8 96/197/8
f 82/199/4 94/198/4 96/197/4
f 81/201/5 93/196/5 94/198/5
f 83/203/1 95/177/1 93/196/1
