# Blender v2.80 (sub 75) OBJ File: 'house_test.blend'
# www.blender.org
mtllib house_test.mtl
o Cube
v 4.049179 3.531350 -1.982617
v 3.786202 0.000000 -1.719641
v 4.049179 3.531350 1.982617
v 3.786202 0.000000 1.719641
v -4.049179 3.531350 -1.982617
v -3.786202 0.000000 -1.719641
v -4.049179 3.531350 1.982617
v -3.786202 0.000000 1.719641
v 4.049179 0.000000 -1.982617
v -4.049179 0.000000 -1.982617
v -4.049179 0.000000 1.982617
v 4.049179 0.000000 1.982617
v 3.786202 3.261802 -1.719641
v -3.786202 3.261802 -1.719641
v -3.786202 3.261802 1.719641
v 3.786202 3.261802 1.719641
v 0.121334 3.531350 1.982617
v -1.349726 3.531350 1.982617
v -1.349726 3.531350 -1.982617
v 0.121334 3.531350 -1.982617
v 0.121334 0.000000 -1.982617
v -1.349726 0.000000 -1.982617
v -1.262615 0.000000 1.982617
v 0.113596 0.000000 1.982617
v 0.113454 0.000000 -1.719641
v -1.262068 0.000000 -1.719641
v -1.262067 0.000000 1.719641
v 0.113454 0.000000 1.719641
v 0.113454 3.261802 -1.719641
v -1.262068 3.261802 -1.719641
v -1.262067 3.261802 1.719641
v 0.113454 3.261802 1.719641
v 4.049179 2.084877 1.982617
v -4.049179 2.084877 1.982617
v -4.049179 2.084877 -1.982617
v 4.049179 2.084877 -1.982617
v -1.349726 2.084877 -1.982617
v 0.121334 2.084877 -1.982617
v 0.113596 2.074927 1.982617
v -1.264449 2.071122 1.982617
v -3.786202 2.074056 -1.719641
v -3.786202 2.074056 1.719641
v 3.786202 2.074056 1.719641
v 3.786202 2.074056 -1.719641
v -1.262068 2.074056 -1.719641
v 0.113454 2.074056 -1.719641
v 0.113454 2.074056 1.719641
v -1.262067 2.074056 1.719641
v -1.349726 -0.126347 -1.982617
v -4.049179 -0.126347 -1.982617
v 0.113596 -0.126347 1.982617
v 4.049179 -0.126347 1.982617
v 4.049179 -0.126347 -1.982617
v -4.049179 -0.126347 1.982617
v -1.262068 -0.126347 -1.719641
v -3.786202 -0.126347 -1.719641
v 0.113454 -0.126347 1.719641
v 3.786202 -0.126347 1.719641
v 3.786202 -0.126347 -1.719641
v -3.786202 -0.126347 1.719641
v 0.121334 -0.126347 -1.982617
v -1.262615 -0.126347 1.982617
v 0.113454 -0.126347 -1.719641
v -1.262067 -0.126347 1.719641
vt 0.295635 0.820028
vt 0.358467 1.000000
vt 0.295635 1.000000
vt 0.209761 0.423775
vt 0.000000 0.282517
vt 0.209761 0.282517
vt 0.806507 0.282517
vt 0.729989 0.423775
vt 0.729261 0.278054
vt 1.000000 0.207495
vt 0.923481 0.414989
vt 0.923481 0.207495
vt 1.000000 0.000000
vt 0.923481 0.207495
vt 0.923481 0.000000
vt 0.419522 0.205538
vt 0.496041 0.000000
vt 0.496041 0.205538
vt 0.606331 0.000000
vt 0.613015 0.205538
vt 0.606331 0.205538
vt 0.801637 0.555859
vt 0.794953 0.423775
vt 0.801637 0.423775
vt 0.185917 1.000000
vt 0.179233 0.820028
vt 0.185917 0.820028
vt 0.606331 0.555859
vt 0.613015 0.627838
vt 0.606331 0.627838
vt 0.794953 0.820028
vt 0.613015 0.627838
vt 0.794953 0.627838
vt 0.911355 0.423775
vt 0.974187 0.555859
vt 0.911355 0.555859
vt 0.062832 1.000000
vt 0.000000 0.820028
vt 0.062832 0.820028
vt 0.496613 0.820028
vt 0.433782 0.627838
vt 0.496613 0.627838
vt 0.496613 0.555859
vt 0.433782 0.423775
vt 0.496613 0.423775
vt 0.433782 0.555859
vt 0.911355 0.627838
vt 0.974187 0.820028
vt 0.911355 0.820028
vt 0.974187 0.627838
vt 0.794953 0.555859
vt 0.613015 0.423775
vt 0.794953 0.423775
vt 0.613015 0.555859
vt 0.172550 0.820028
vt 0.179233 1.000000
vt 0.172550 1.000000
vt 0.419522 0.423900
vt 0.405611 0.495886
vt 0.405611 0.423775
vt 0.405611 0.532353
vt 0.391699 0.538964
vt 0.391699 0.532353
vt 0.613015 0.820028
vt 0.606331 0.820028
vt 0.419522 0.423775
vt 0.496041 0.282517
vt 0.496041 0.423775
vt 0.419522 0.282517
vt 0.729989 0.000000
vt 0.806507 0.205538
vt 0.729463 0.205943
vt 0.209761 0.205538
vt 0.000000 0.000000
vt 0.209761 0.000000
vt 0.000000 0.205538
vt 0.619699 0.000000
vt 0.619699 0.205943
vt 0.606331 0.282517
vt 0.606331 0.423775
vt 0.813191 0.207495
vt 0.813191 0.000000
vt 0.813191 0.414989
vt 0.813191 0.207495
vt 0.619699 0.423775
vt 0.619699 0.277958
vt 0.405611 0.423820
vt 0.391699 0.423775
vt 0.801637 0.627838
vt 0.801637 0.820028
vt 0.606331 0.423775
vt 0.419870 0.538765
vt 0.433782 0.430387
vt 0.433782 0.538919
vt 0.223673 0.410014
vt 0.209761 0.282517
vt 0.223673 0.277930
vt 0.405611 0.013761
vt 0.419522 0.205943
vt 0.405611 0.205951
vt 0.223673 0.013761
vt 0.419522 0.000000
vt 0.405611 0.410014
vt 0.209761 0.423775
vt 0.419522 0.277958
vt 0.419522 0.423775
vt 0.209761 0.205538
vt 0.209761 0.000000
vt 0.223673 0.205951
vt 0.806508 0.207495
vt 0.613015 0.423775
vt 0.613015 0.282517
vt 0.806507 0.000000
vt 0.613015 0.277958
vt 0.613015 0.555859
vt 0.419870 0.430387
vt 0.433782 0.423775
vt 0.794953 0.627838
vt 0.613015 0.000000
vt 0.181938 0.555859
vt 0.195850 0.627845
vt 0.195850 0.555830
vt 0.181938 0.423775
vt 0.000000 0.555859
vt 0.181938 0.627838
vt 0.000000 0.627838
vt 0.000000 0.820028
vt 0.412295 0.567901
vt 0.405611 0.495886
vt 0.405611 0.567901
vt 0.195850 0.627846
vt 0.209761 0.555859
vt 0.195850 0.555830
vt 0.391699 0.627838
vt 0.391699 0.555859
vt 0.391699 0.423775
vt 0.209761 0.820027
vt 0.391699 0.820027
vt 0.358467 0.820028
vt 0.000000 0.423775
vt 0.806507 0.423775
vt 1.000000 0.414989
vt 1.000000 0.207495
vt 0.419522 0.000000
vt 0.613015 0.000000
vt 0.794953 0.555859
vt 0.179233 1.000000
vt 0.613015 0.820028
vt 0.974187 0.423775
vt 0.000000 1.000000
vt 0.433782 0.820028
vt 0.179233 0.820028
vt 0.419522 0.495879
vt 0.405611 0.538964
vt 0.806507 0.000000
vt 0.405611 0.277930
vt 0.806507 0.414989
vt 0.806508 0.207495
vt 0.613015 0.423775
vt 0.613015 0.423775
vt 0.419870 0.423775
vt 0.794953 0.820028
vt 0.613015 0.205943
vt 0.000000 0.423775
vt 0.181938 0.820028
vt 0.412295 0.495886
vt 0.209761 0.627838
vt 0.209761 0.423775
vn 1.0000 0.0000 0.0000
vn 0.0000 1.0000 0.0000
vn 0.0000 0.0000 1.0000
vn -1.0000 0.0000 0.0000
vn 0.0000 0.0000 -1.0000
vn 0.0000 -1.0000 -0.0000
vn 0.0028 -0.9999 -0.0111
vn -1.0000 0.0000 0.0005
vn 1.0000 0.0000 0.0091
vn 1.0000 0.0000 0.0021
vn 0.0000 -1.0000 0.0033
vn 1.0000 0.0009 0.0021
usemtl Material
s off
f 41/1/1 15/2/1 42/3/1
f 5/4/2 18/5/2 19/6/2
f 18/7/3 34/8/3 40/9/3
f 1/10/1 33/11/1 36/12/1
f 7/13/4 35/14/4 34/15/4
f 20/16/5 36/17/5 38/18/5
f 9/19/5 61/20/5 21/21/5
f 27/22/5 60/23/5 8/24/5
f 8/25/1 56/26/1 6/27/1
f 26/28/3 63/29/3 25/30/3
f 13/31/6 32/32/6 29/33/6
f 42/34/5 31/35/5 48/36/5
f 43/37/4 13/38/4 44/39/4
f 44/40/3 29/41/3 46/42/3
f 45/43/3 14/44/3 41/45/3
f 46/42/3 30/46/3 45/43/3
f 47/47/5 16/48/5 43/49/5
f 48/36/5 32/50/5 47/47/5
f 30/51/6 15/52/6 14/53/6
f 29/33/6 31/54/6 30/51/6
f 2/55/4 58/56/4 4/57/4
f 48/58/7 39/59/7 40/60/7
f 28/61/8 51/62/8 24/63/8
f 25/30/3 59/64/3 2/65/3
f 5/66/5 37/67/5 35/68/5
f 19/69/5 38/18/5 37/67/5
f 33/70/3 17/71/3 39/72/3
f 17/71/3 40/9/3 39/72/3
f 20/73/2 3/74/2 1/75/2
f 19/6/2 17/76/2 20/73/2
f 12/77/3 39/72/3 24/78/3
f 37/67/5 21/21/5 22/79/5
f 35/68/5 22/79/5 10/80/5
f 38/18/5 9/19/5 21/21/5
f 34/15/4 10/81/4 11/82/4
f 36/12/1 12/83/1 9/84/1
f 40/9/3 11/85/3 23/86/3
f 47/87/8 24/63/8 39/88/8
f 28/89/5 43/49/5 4/90/5
f 25/30/3 45/43/3 26/28/3
f 26/28/3 41/45/3 6/91/3
f 2/65/3 46/42/3 25/30/3
f 4/57/4 44/39/4 2/55/4
f 8/24/5 48/36/5 27/22/5
f 6/27/1 42/3/1 8/25/1
f 40/92/9 27/93/9 48/94/9
f 56/95/6 49/96/6 55/97/6
f 58/98/6 51/99/6 57/100/6
f 59/101/6 52/102/6 58/98/6
f 60/103/6 50/104/6 56/95/6
f 60/103/6 62/105/6 54/106/6
f 59/101/6 61/107/6 53/108/6
f 55/97/6 61/107/6 63/109/6
f 12/83/1 53/110/1 9/84/1
f 22/79/5 50/111/5 10/80/5
f 21/21/5 49/112/5 22/79/5
f 10/81/4 54/113/4 11/82/4
f 11/85/3 62/114/3 23/86/3
f 6/91/3 55/115/3 26/28/3
f 23/116/10 64/117/10 27/93/10
f 4/90/5 57/118/5 28/89/5
f 24/78/3 52/119/3 12/77/3
f 64/120/6 51/121/6 62/122/6
f 60/123/6 55/124/6 64/120/6
f 57/125/6 55/124/6 63/126/6
f 59/127/6 57/125/6 63/126/6
f 62/128/3 24/129/3 23/130/3
f 24/131/2 27/132/2 23/133/2
f 27/132/2 25/134/2 26/135/2
f 6/136/2 27/132/2 26/135/2
f 25/134/2 4/137/2 2/138/2
f 41/1/1 14/139/1 15/2/1
f 5/4/2 7/140/2 18/5/2
f 18/7/3 7/141/3 34/8/3
f 1/10/1 3/142/1 33/11/1
f 7/13/4 5/143/4 35/14/4
f 20/16/5 1/144/5 36/17/5
f 9/19/5 53/145/5 61/20/5
f 27/22/5 64/146/5 60/23/5
f 8/25/1 60/147/1 56/26/1
f 26/28/3 55/115/3 63/29/3
f 13/31/6 16/148/6 32/32/6
f 42/34/5 15/149/5 31/35/5
f 43/37/4 16/150/4 13/38/4
f 44/40/3 13/151/3 29/41/3
f 45/43/3 30/46/3 14/44/3
f 46/42/3 29/41/3 30/46/3
f 47/47/5 32/50/5 16/48/5
f 48/36/5 31/35/5 32/50/5
f 30/51/6 31/54/6 15/52/6
f 29/33/6 32/32/6 31/54/6
f 2/55/4 59/152/4 58/56/4
f 48/58/11 47/153/11 39/59/11
f 28/61/8 57/154/8 51/62/8
f 25/30/3 63/29/3 59/64/3
f 5/66/5 19/69/5 37/67/5
f 19/69/5 20/16/5 38/18/5
f 33/70/3 3/155/3 17/71/3
f 17/71/3 18/7/3 40/9/3
f 20/73/2 17/76/2 3/74/2
f 19/6/2 18/5/2 17/76/2
f 12/77/3 33/70/3 39/72/3
f 37/67/5 38/18/5 21/21/5
f 35/68/5 37/67/5 22/79/5
f 38/18/5 36/17/5 9/19/5
f 34/15/4 35/14/4 10/81/4
f 36/12/1 33/11/1 12/83/1
f 40/9/3 34/8/3 11/85/3
f 47/87/8 28/61/8 24/63/8
f 28/89/5 47/47/5 43/49/5
f 25/30/3 46/42/3 45/43/3
f 26/28/3 45/43/3 41/45/3
f 2/65/3 44/40/3 46/42/3
f 4/57/4 43/37/4 44/39/4
f 8/24/5 42/34/5 48/36/5
f 6/27/1 41/1/1 42/3/1
f 40/92/12 23/116/12 27/93/12
f 56/95/6 50/104/6 49/96/6
f 58/98/6 52/102/6 51/99/6
f 59/101/6 53/108/6 52/102/6
f 60/103/6 54/106/6 50/104/6
f 60/103/6 64/156/6 62/105/6
f 59/101/6 63/109/6 61/107/6
f 55/97/6 49/96/6 61/107/6
f 12/83/1 52/157/1 53/110/1
f 22/79/5 49/112/5 50/111/5
f 21/21/5 61/20/5 49/112/5
f 10/81/4 50/158/4 54/113/4
f 11/85/3 54/159/3 62/114/3
f 6/91/3 56/160/3 55/115/3
f 23/116/10 62/161/10 64/117/10
f 4/90/5 58/162/5 57/118/5
f 24/78/3 51/163/3 52/119/3
f 64/120/6 57/125/6 51/121/6
f 60/123/6 56/164/6 55/124/6
f 57/125/6 64/120/6 55/124/6
f 59/127/6 58/165/6 57/125/6
f 62/128/3 51/166/3 24/129/3
f 24/131/2 28/167/2 27/132/2
f 27/132/2 28/167/2 25/134/2
f 6/136/2 8/168/2 27/132/2
f 25/134/2 28/167/2 4/137/2
